# xmcd
#
# Track frame offsets: 
#        150
#        19653
#        43694
#        61317
#        79867
#        95807
#        114097
#        130422
#        146748
#        156674
#
# Disc length: 2331 seconds
#
# Revision: 4
# Processed by: cddbd v1.5.2PL0 Copyright (c) Steve Scherf et al.
# Submitted via: ExactAudioCopyFreeDBPlugin 1.0
#
DISCID=8a09190a
DTITLE=Rosanne Cash - She Remembers Everything
DYEAR=2018
DGENRE=Country
TTITLE0=The Only Thing Worth Fighting For
TTITLE1=The Undiscovered Country
TTITLE2=8 Gods Of Harlem
TTITLE3=Rabbit Hole
TTITLE4=Crossing To Jerusalem
TTITLE5=Not Many Miles To Go
TTITLE6=Everyone But Me
TTITLE7=She Remembers Everything
TTITLE8=Particle And Wave
TTITLE9=My Least Favorite Life
EXTD=\n
EXTT0=
EXTT1=
EXTT2=
EXTT3=
EXTT4=
EXTT5=
EXTT6=
EXTT7=
EXTT8=
EXTT9=
PLAYORDER=
